<svg width="18" height="21" viewBox="0 0 18 21" fill="none" xmlns="http://www.w3.org/2000/svg">
<mask id="mask0_4959_485" style="mask-type:luminance" maskUnits="userSpaceOnUse" x="0" y="0" width="18" height="21">
<path fill-rule="evenodd" clip-rule="evenodd" d="M0 0H17.0388V20.8467H0V0Z" fill="white"/>
</mask>
<g mask="url(#mask0_4959_485)">
<path fill-rule="evenodd" clip-rule="evenodd" d="M5.34179 1.5C2.79279 1.5 1.49979 2.482 1.49979 4.421V19.145C1.49979 19.239 1.55379 19.29 1.59879 19.316C1.64379 19.344 1.71479 19.364 1.79679 19.318L8.17879 15.738C8.40679 15.611 8.68579 15.61 8.91479 15.739L15.2418 19.313C15.3248 19.361 15.3958 19.339 15.4408 19.312C15.4858 19.285 15.5388 19.234 15.5388 19.14V4.604C15.5388 3.837 15.5388 1.5 11.7008 1.5H5.34179ZM1.69879 20.847C1.40379 20.847 1.10879 20.768 0.840786 20.61C0.313786 20.303 -0.000213623 19.754 -0.000213623 19.145V4.421C-0.000213623 1.611 1.94679 0 5.34179 0H11.7008C15.0928 0 17.0388 1.679 17.0388 4.604V19.14C17.0388 19.75 16.7248 20.299 16.1968 20.606C15.6708 20.914 15.0368 20.92 14.5048 20.62L8.54479 17.253L2.52979 20.627C2.26979 20.773 1.98479 20.847 1.69879 20.847Z" fill="white"/>
</g>
<path fill-rule="evenodd" clip-rule="evenodd" d="M12.1396 8.22852H4.82159C4.40759 8.22852 4.07159 7.89252 4.07159 7.47852C4.07159 7.06452 4.40759 6.72852 4.82159 6.72852H12.1396C12.5536 6.72852 12.8896 7.06452 12.8896 7.47852C12.8896 7.89252 12.5536 8.22852 12.1396 8.22852Z" fill="white"/>
</svg>
