<svg width="16" height="16" viewBox="0 0 16 16" fill="none" xmlns="http://www.w3.org/2000/svg">
<path d="M11.307 10.7623C10.5404 10.7623 9.8497 11.0934 9.37036 11.62L5.05871 8.94958C5.17708 8.64698 5.23777 8.32491 5.23765 7.99998C5.23779 7.67506 5.1771 7.35298 5.05871 7.05039L9.37036 4.37987C9.84973 4.90649 10.5404 5.23768 11.307 5.23768C12.7511 5.23768 13.9259 4.06287 13.9259 2.61878C13.9259 1.17469 12.7511 0 11.307 0C9.86292 0 8.68811 1.17481 8.68811 2.6189C8.68805 2.94381 8.74873 3.26586 8.86705 3.56846L4.55552 6.23889C4.07615 5.71227 3.38549 5.38108 2.6189 5.38108C1.17481 5.38108 0 6.55602 0 7.99998C0 9.44404 1.17481 10.6189 2.6189 10.6189C3.38546 10.6189 4.07618 10.2878 4.55552 9.76108L8.86708 12.4315C8.74874 12.7341 8.68804 13.0562 8.68811 13.3812C8.68811 14.8252 9.86289 16 11.307 16C12.7511 16 13.9259 14.8252 13.9259 13.3812C13.9259 11.9371 12.7511 10.7623 11.307 10.7623ZM9.64304 2.6189C9.64304 1.7014 10.3895 0.954967 11.307 0.954967C12.2244 0.954967 12.9709 1.7014 12.9709 2.6189C12.9709 3.5364 12.2245 4.28284 11.307 4.28284C10.3895 4.28284 9.64304 3.53637 9.64304 2.6189ZM2.6189 9.66392C1.70128 9.66392 0.954842 8.91745 0.954842 7.99998C0.954842 7.08252 1.70128 6.33605 2.6189 6.33605C3.5364 6.33605 4.28271 7.08252 4.28271 7.99998C4.28271 8.91745 3.53637 9.66392 2.6189 9.66392ZM9.64304 13.3811C9.64304 12.4636 10.3895 11.7171 11.307 11.7171C12.2244 11.7171 12.9709 12.4636 12.9709 13.3811C12.9709 14.2986 12.2245 15.045 11.307 15.045C10.3895 15.045 9.64304 14.2986 9.64304 13.3811V13.3811Z" fill="#586374"/>
</svg>
