<svg width="16" height="16" viewBox="0 0 16 16" fill="none" xmlns="http://www.w3.org/2000/svg">
<path d="M14.0729 11.7171C14.7593 10.599 15.1218 9.31221 15.12 8.00018C15.1218 6.68811 14.7593 5.40113 14.0729 4.2829L14.0691 4.27666C13.4323 3.23878 12.5401 2.38153 11.4775 1.78684C10.4149 1.19215 9.21764 0.879883 7.99999 0.879883C6.78234 0.879883 5.58503 1.19215 4.52248 1.78684C3.45993 2.38153 2.56763 3.23878 1.93087 4.27666L1.92703 4.2829C1.24237 5.40188 0.880066 6.68821 0.880066 8.00002C0.880066 9.31184 1.24237 10.5982 1.92703 11.7171L1.93103 11.7235C2.56782 12.7614 3.46011 13.6186 4.52266 14.2132C5.5852 14.8079 6.78249 15.1201 8.00011 15.1201C9.21774 15.1201 10.415 14.8078 11.4775 14.2131C12.5401 13.6185 13.4323 12.7612 14.0691 11.7234L14.0729 11.7171ZM8.91007 13.8997C8.77437 14.0306 8.61818 14.1385 8.44767 14.2191C8.30776 14.2855 8.15481 14.32 7.99991 14.32C7.84501 14.32 7.69206 14.2855 7.55215 14.2191C7.22776 14.0534 6.95007 13.809 6.74447 13.5083C6.3246 12.9016 6.01346 12.2264 5.82495 11.513C6.54922 11.4684 7.27423 11.4457 7.99999 11.4448C8.72543 11.4448 9.4505 11.4675 10.1752 11.513C10.0708 11.8798 9.94046 12.2386 9.78511 12.5869C9.58053 13.0767 9.28343 13.5224 8.91007 13.8997ZM1.69391 8.40002H4.56575C4.58446 9.20136 4.67134 9.99966 4.82543 10.7863C4.04036 10.8554 3.25732 10.9503 2.47631 11.0711C2.01891 10.2505 1.75154 9.3377 1.69391 8.40002ZM2.47631 4.92914C3.257 5.0501 4.04031 5.14504 4.82623 5.21394C4.67187 6.00047 4.58483 6.79872 4.56607 7.60002H1.69391C1.75156 6.6624 2.01893 5.74967 2.47631 4.92914ZM7.08991 2.10034C7.2256 1.9694 7.3818 1.86152 7.55231 1.78098C7.69222 1.71451 7.84517 1.68002 8.00007 1.68002C8.15497 1.68002 8.30792 1.71451 8.44783 1.78098C8.77222 1.94667 9.04991 2.19102 9.25551 2.4917C9.67537 3.09849 9.98652 3.77367 10.175 4.48706C9.45076 4.53165 8.72575 4.55437 7.99999 4.55522C7.27455 4.55522 6.54948 4.5325 5.82479 4.48706C5.92915 4.12028 6.05951 3.7614 6.21487 3.41314C6.41944 2.92336 6.71655 2.47762 7.08991 2.10034ZM14.3061 7.60002H11.4342C11.4155 6.79868 11.3286 6.00039 11.1745 5.21378C11.9596 5.14466 12.7427 5.04973 13.5237 4.92898C13.9811 5.74956 14.2484 6.66234 14.3061 7.60002ZM5.63007 10.724C5.47364 9.95867 5.38529 9.18096 5.36607 8.40002H10.6341C10.615 9.181 10.5268 9.95876 10.3705 10.7242C9.58122 10.6723 8.79103 10.6459 7.99999 10.6448C7.20959 10.6448 6.41962 10.6712 5.63007 10.724ZM10.3699 5.27602C10.5263 6.04138 10.6147 6.81908 10.6339 7.60002H5.36607C5.38511 6.81904 5.4733 6.04128 5.62959 5.27586C6.41892 5.3277 7.20911 5.35416 8.00015 5.35522C8.79055 5.35522 9.58052 5.32877 10.3701 5.27586L10.3699 5.27602ZM11.4339 8.40002H14.3061C14.2484 9.33765 13.981 10.2504 13.5237 11.0709C12.7429 10.9499 11.9596 10.855 11.1737 10.7861C11.3281 9.99958 11.4151 9.20133 11.4339 8.40002ZM13.044 4.19282C12.3613 4.29128 11.6767 4.36925 10.9901 4.42674C10.8667 3.96723 10.7075 3.51807 10.5141 3.08338C10.3374 2.68339 10.1151 2.30515 9.85167 1.95618C11.1249 2.34669 12.2422 3.12949 13.044 4.19282ZM3.53119 3.53106C4.26158 2.79998 5.16016 2.25922 6.14815 1.95618C6.13311 1.9757 6.11775 1.99426 6.10303 2.01394C5.59519 2.74497 5.22527 3.56268 5.01151 4.42674C4.32479 4.36861 3.63967 4.29064 2.95615 4.19282C3.13241 3.9593 3.32454 3.73819 3.53119 3.53106ZM2.95615 11.8072C3.63871 11.7088 4.32335 11.6308 5.01007 11.5733C5.13346 12.0328 5.29261 12.482 5.48607 12.9167C5.66272 13.3167 5.885 13.6949 6.14847 14.0439C4.87525 13.6534 3.75797 12.8706 2.95615 11.8072ZM12.4691 12.469C11.7387 13.2001 10.8401 13.7408 9.85215 14.0439C9.86719 14.0243 9.88255 14.0058 9.89727 13.9861C10.4051 13.2551 10.775 12.4374 10.9888 11.5733C11.6755 11.6314 12.3606 11.7094 13.0441 11.8072C12.8679 12.0407 12.6758 12.2619 12.4691 12.469Z" fill="#586374"/>
</svg>
