<svg width="16" height="16" viewBox="0 0 16 16" fill="none" xmlns="http://www.w3.org/2000/svg">
<g clip-path="url(#clip0_3098_4819)">
<path d="M3.58119 15.3639C3.40587 15.3639 3.2318 15.3092 3.08324 15.2018C2.94811 15.104 2.84472 14.9686 2.78593 14.8125C2.72713 14.6564 2.71552 14.4865 2.75254 14.3238L3.78188 9.78967L0.29104 6.72837C0.165491 6.61882 0.0749239 6.47478 0.0306056 6.31416C-0.0137127 6.15354 -0.00982558 5.98343 0.0417832 5.825C0.0930753 5.66666 0.189713 5.52685 0.319715 5.42292C0.449717 5.31898 0.607365 5.25548 0.773114 5.2403L5.39189 4.82095L7.21803 0.547494C7.35263 0.233517 7.65926 0.0307617 7.99999 0.0307617C8.34071 0.0307617 8.64735 0.233517 8.78201 0.546775L10.6081 4.82095L15.2261 5.24024C15.5662 5.27086 15.8528 5.50099 15.9582 5.82497C16.0636 6.14898 15.9661 6.50433 15.7095 6.72834L12.2187 9.78907L13.2481 14.3231C13.3235 14.6565 13.1941 15.0013 12.9175 15.2012C12.6415 15.4012 12.2734 15.4165 11.9828 15.2418L7.99999 12.8618L4.01723 15.2432C3.88257 15.3231 3.73253 15.3639 3.58119 15.3639ZM7.99999 11.8365C8.15136 11.8365 8.30124 11.8771 8.43603 11.9571L12.1948 14.2052L11.2233 9.92567C11.1893 9.77609 11.1964 9.6201 11.2438 9.47422C11.2913 9.32834 11.3773 9.198 11.4927 9.09702L14.7888 6.20632L10.428 5.81035C10.2746 5.79661 10.1277 5.74138 10.0032 5.65059C9.87875 5.5598 9.78131 5.43685 9.72134 5.29493L7.99999 1.26214L6.27657 5.29552C6.15522 5.58287 5.88518 5.78028 5.57196 5.80897L1.2105 6.20498L4.50652 9.09568C4.74259 9.30237 4.84584 9.61975 4.7759 9.92507L3.80519 14.2045L7.56394 11.9571C7.6986 11.8771 7.84864 11.8365 7.99999 11.8365ZM5.35661 4.90357C5.35661 4.90357 5.35661 4.90429 5.35589 4.90492L5.35661 4.90357ZM10.6421 4.9016L10.6428 4.90295C10.6428 4.90223 10.6428 4.90223 10.642 4.9016H10.6421Z" fill="#586374"/>
</g>
<defs>
<clipPath id="clip0_3098_4819">
<rect width="16" height="16" fill="white"/>
</clipPath>
</defs>
</svg>
