<svg width="21" height="20" viewBox="0 0 21 20" fill="none" xmlns="http://www.w3.org/2000/svg">
<g id="Search">
<path id="Search_2" fill-rule="evenodd" clip-rule="evenodd" d="M0.75 8.66993C0.75 3.88166 4.59034 0 9.32764 0C11.6026 0 13.7843 0.913436 15.3929 2.53936C17.0016 4.16529 17.9053 6.37052 17.9053 8.66993C17.9053 13.4582 14.0649 17.3399 9.32764 17.3399C4.59034 17.3399 0.75 13.4582 0.75 8.66993ZM17.7634 15.6543L20.318 17.7164H20.3624C20.8792 18.2388 20.8792 19.0858 20.3624 19.6082C19.8455 20.1306 19.0076 20.1306 18.4907 19.6082L16.3707 17.1785C16.1703 16.9766 16.0576 16.7024 16.0576 16.4164C16.0576 16.1304 16.1703 15.8562 16.3707 15.6543C16.7572 15.2704 17.3768 15.2704 17.7634 15.6543Z" fill="#0065FF"/>
</g>
</svg>
