<svg width="23" height="20" viewBox="0 0 23 20" fill="none" xmlns="http://www.w3.org/2000/svg">
<path d="M0.75 19.7499C0.692813 19.7499 0.635062 19.7433 0.577875 19.7302C0.413457 19.6912 0.266991 19.5979 0.162135 19.4654C0.0572799 19.3329 0.000159094 19.1689 0 18.9999C0 12.1847 0.862125 6.51654 11.25 6.25872V0.999911C11.25 0.854094 11.2925 0.711445 11.3724 0.58942C11.4522 0.467394 11.5659 0.371284 11.6995 0.312852C11.8331 0.25442 11.9808 0.236199 12.1246 0.260419C12.2684 0.284639 12.402 0.35025 12.5091 0.449223L22.2591 9.44922C22.4128 9.59041 22.5 9.79047 22.5 9.99991C22.5 10.2093 22.4128 10.4094 22.2591 10.5508L12.5091 19.5508C12.4021 19.6501 12.2684 19.716 12.1245 19.7402C11.9805 19.7645 11.8326 19.746 11.6991 19.6871C11.5655 19.6286 11.452 19.5324 11.3722 19.4104C11.2925 19.2883 11.25 19.1457 11.25 18.9999V13.7587C4.12425 13.9293 2.8095 16.5581 1.42088 19.3354C1.35861 19.46 1.26286 19.5648 1.14436 19.638C1.02586 19.7112 0.889299 19.75 0.75 19.7499ZM12 12.2499C12.4146 12.2499 12.75 12.5853 12.75 12.9999V17.2867L20.6441 9.99991L12.75 2.7131V6.99991C12.75 7.41447 12.4146 7.74991 12 7.74991C3.71475 7.74991 1.93069 10.9543 1.57987 16.0725C3.13331 13.9858 5.781 12.2499 12 12.2499Z" fill="#4E617E"/>
</svg>
