<svg width="25" height="22" viewBox="0 0 25 22" fill="none" xmlns="http://www.w3.org/2000/svg">
<g filter="url(#filter0_d_5052_1264)">
<path d="M1.75 19.7499C1.69281 19.7499 1.63506 19.7433 1.57787 19.7302C1.41346 19.6912 1.26699 19.5979 1.16214 19.4654C1.05728 19.3329 1.00016 19.1689 1 18.9999C1 12.1847 1.86212 6.51654 12.25 6.25872V0.999911C12.25 0.854094 12.2925 0.711445 12.3724 0.58942C12.4522 0.467394 12.5659 0.371284 12.6995 0.312852C12.8331 0.25442 12.9808 0.236199 13.1246 0.260419C13.2684 0.284639 13.402 0.35025 13.5091 0.449223L23.2591 9.44922C23.4128 9.59041 23.5 9.79047 23.5 9.99991C23.5 10.2093 23.4128 10.4094 23.2591 10.5508L13.5091 19.5508C13.4021 19.6501 13.2684 19.716 13.1245 19.7402C12.9805 19.7645 12.8326 19.746 12.6991 19.6871C12.5655 19.6286 12.452 19.5324 12.3722 19.4104C12.2925 19.2883 12.25 19.1457 12.25 18.9999V13.7587C5.12425 13.9293 3.8095 16.5581 2.42088 19.3354C2.35861 19.46 2.26286 19.5648 2.14436 19.638C2.02586 19.7112 1.8893 19.75 1.75 19.7499ZM13 12.2499C13.4146 12.2499 13.75 12.5853 13.75 12.9999V17.2867L21.6441 9.99991L13.75 2.7131V6.99991C13.75 7.41447 13.4146 7.74991 13 7.74991C4.71475 7.74991 2.93069 10.9543 2.57987 16.0725C4.13331 13.9858 6.781 12.2499 13 12.2499Z" fill="#0065FF"/>
</g>
<defs>
<filter id="filter0_d_5052_1264" x="-3" y="0.25" width="30.5" height="27.5005" filterUnits="userSpaceOnUse" color-interpolation-filters="sRGB">
<feFlood flood-opacity="0" result="BackgroundImageFix"/>
<feColorMatrix in="SourceAlpha" type="matrix" values="0 0 0 0 0 0 0 0 0 0 0 0 0 0 0 0 0 0 127 0" result="hardAlpha"/>
<feOffset dy="4"/>
<feGaussianBlur stdDeviation="2"/>
<feComposite in2="hardAlpha" operator="out"/>
<feColorMatrix type="matrix" values="0 0 0 0 0 0 0 0 0 0 0 0 0 0 0 0 0 0 0.25 0"/>
<feBlend mode="normal" in2="BackgroundImageFix" result="effect1_dropShadow_5052_1264"/>
<feBlend mode="normal" in="SourceGraphic" in2="effect1_dropShadow_5052_1264" result="shape"/>
</filter>
</defs>
</svg>
