<svg width="16" height="16" viewBox="0 0 16 16" fill="none" xmlns="http://www.w3.org/2000/svg">
<path fill-rule="evenodd" clip-rule="evenodd" d="M7.33334 3.60939L3.80467 7.13805C3.67894 7.25949 3.51054 7.32669 3.33574 7.32517C3.16094 7.32365 2.99373 7.25354 2.87013 7.12993C2.74652 7.00633 2.67641 6.83912 2.67489 6.66432C2.67337 6.48952 2.74057 6.32112 2.86201 6.19539L7.52867 1.52872C7.59053 1.46676 7.664 1.4176 7.74488 1.38406C7.82576 1.35052 7.91245 1.33325 8.00001 1.33325C8.08756 1.33325 8.17426 1.35052 8.25514 1.38406C8.33601 1.4176 8.40948 1.46676 8.47134 1.52872L13.138 6.19539C13.2594 6.32112 13.3266 6.48952 13.3251 6.66432C13.3236 6.83912 13.2535 7.00633 13.1299 7.12993C13.0063 7.25354 12.8391 7.32365 12.6643 7.32517C12.4895 7.32669 12.3211 7.25949 12.1953 7.13805L8.66667 3.60939V14.0001C8.66667 14.1769 8.59644 14.3464 8.47141 14.4715C8.34639 14.5965 8.17682 14.6667 8.00001 14.6667C7.8232 14.6667 7.65363 14.5965 7.5286 14.4715C7.40358 14.3464 7.33334 14.1769 7.33334 14.0001V3.60939Z" fill="#586374"/>
</svg>
